<svg width="38" height="27" viewBox="0 0 38 27" fill="none" xmlns="http://www.w3.org/2000/svg">
<path d="M35.6666 11.8333H6.35664L15.1783 3.01166C15.3375 2.85791 15.4645 2.67401 15.5518 2.47067C15.6392 2.26733 15.6851 2.04863 15.6871 1.82733C15.689 1.60603 15.6468 1.38656 15.563 1.18174C15.4792 0.976909 15.3554 0.790822 15.199 0.634334C15.0425 0.477846 14.8564 0.354091 14.6516 0.27029C14.4467 0.186488 14.2273 0.144319 14.006 0.146242C13.7847 0.148165 13.566 0.194142 13.3626 0.281491C13.1593 0.368839 12.9754 0.495809 12.8216 0.654993L1.15497 12.3217C0.842518 12.6342 0.666992 13.058 0.666992 13.5C0.666992 13.9419 0.842518 14.3658 1.15497 14.6783L12.8216 26.345C13.136 26.6486 13.557 26.8166 13.994 26.8128C14.431 26.809 14.849 26.6337 15.158 26.3247C15.467 26.0157 15.6423 25.5976 15.6461 25.1607C15.6499 24.7237 15.4819 24.3027 15.1783 23.9883L6.35664 15.1667H35.6666C36.1087 15.1667 36.5326 14.9911 36.8451 14.6785C37.1577 14.3659 37.3333 13.942 37.3333 13.5C37.3333 13.058 37.1577 12.634 36.8451 12.3215C36.5326 12.0089 36.1087 11.8333 35.6666 11.8333Z" fill="white"/>
</svg>
