<svg width="40" height="40" viewBox="0 0 40 40" fill="none" xmlns="http://www.w3.org/2000/svg">
<circle opacity="0.1" cx="20" cy="20" r="20" fill="white"/>
<g opacity="0.8" clip-path="url(#clip0_302_61)">
<path d="M20 16.9989C19.2044 16.9989 18.4413 17.315 17.8787 17.8776C17.3161 18.4402 17 19.2033 17 19.9989C17 20.7946 17.3161 21.5576 17.8787 22.1202C18.4413 22.6828 19.2044 22.9989 20 22.9989C20.7957 22.9989 21.5587 22.6828 22.1213 22.1202C22.6839 21.5576 23 20.7946 23 19.9989C23 19.2033 22.6839 18.4402 22.1213 17.8776C21.5587 17.315 20.7957 16.9989 20 16.9989ZM20 14.9989C21.3261 14.9989 22.5979 15.5257 23.5355 16.4634C24.4732 17.4011 25 18.6728 25 19.9989C25 21.325 24.4732 22.5968 23.5355 23.5344C22.5979 24.4721 21.3261 24.9989 20 24.9989C18.6739 24.9989 17.4021 24.4721 16.4645 23.5344C15.5268 22.5968 15 21.325 15 19.9989C15 18.6728 15.5268 17.4011 16.4645 16.4634C17.4021 15.5257 18.6739 14.9989 20 14.9989ZM26.5 14.7489C26.5 15.0804 26.3683 15.3984 26.1339 15.6328C25.8995 15.8672 25.5815 15.9989 25.25 15.9989C24.9185 15.9989 24.6005 15.8672 24.3661 15.6328C24.1317 15.3984 24 15.0804 24 14.7489C24 14.4174 24.1317 14.0994 24.3661 13.865C24.6005 13.6306 24.9185 13.4989 25.25 13.4989C25.5815 13.4989 25.8995 13.6306 26.1339 13.865C26.3683 14.0994 26.5 14.4174 26.5 14.7489ZM20 11.9989C17.526 11.9989 17.122 12.0059 15.971 12.0569C15.187 12.0939 14.661 12.1989 14.173 12.3889C13.739 12.5569 13.426 12.7579 13.093 13.0919C12.78 13.3943 12.5394 13.7635 12.389 14.1719C12.199 14.6619 12.094 15.1869 12.058 15.9699C12.006 17.0739 12 17.4599 12 19.9989C12 22.4729 12.007 22.8769 12.058 24.0279C12.095 24.8109 12.2 25.3379 12.389 25.8249C12.559 26.2599 12.759 26.5729 13.091 26.9049C13.428 27.2409 13.741 27.4419 14.171 27.6079C14.665 27.7989 15.191 27.9049 15.971 27.9409C17.075 27.9929 17.461 27.9989 20 27.9989C22.474 27.9989 22.878 27.9919 24.029 27.9409C24.811 27.9039 25.338 27.7989 25.826 27.6099C26.259 27.4409 26.574 27.2399 26.906 26.9079C27.243 26.5709 27.444 26.2579 27.61 25.8279C27.8 25.3349 27.906 24.8079 27.942 24.0279C27.994 22.9239 28 22.5379 28 19.9989C28 17.5249 27.993 17.1209 27.942 15.9699C27.905 15.1879 27.8 14.6599 27.61 14.1719C27.4593 13.7639 27.2191 13.3949 26.907 13.0919C26.6047 12.7787 26.2355 12.5381 25.827 12.3879C25.337 12.1979 24.811 12.0929 24.029 12.0569C22.925 12.0049 22.539 11.9989 20 11.9989ZM20 9.9989C22.717 9.9989 23.056 10.0089 24.122 10.0589C25.187 10.1089 25.912 10.2759 26.55 10.5239C27.21 10.7779 27.766 11.1219 28.322 11.6769C28.8305 12.1768 29.224 12.7815 29.475 13.4489C29.722 14.0859 29.89 14.8119 29.94 15.8769C29.987 16.9429 30 17.2819 30 19.9989C30 22.7159 29.99 23.0549 29.94 24.1209C29.89 25.1859 29.722 25.9109 29.475 26.5489C29.2247 27.2167 28.8311 27.8215 28.322 28.3209C27.822 28.8292 27.2173 29.2227 26.55 29.4739C25.913 29.7209 25.187 29.8889 24.122 29.9389C23.056 29.9859 22.717 29.9989 20 29.9989C17.283 29.9989 16.944 29.9889 15.878 29.9389C14.813 29.8889 14.088 29.7209 13.45 29.4739C12.7823 29.2234 12.1775 28.8298 11.678 28.3209C11.1694 27.8211 10.7759 27.2164 10.525 26.5489C10.277 25.9119 10.11 25.1859 10.06 24.1209C10.013 23.0549 10 22.7159 10 19.9989C10 17.2819 10.01 16.9429 10.06 15.8769C10.11 14.8109 10.277 14.0869 10.525 13.4489C10.7752 12.7811 11.1688 12.1762 11.678 11.6769C12.1777 11.1681 12.7824 10.7746 13.45 10.5239C14.088 10.2759 14.812 10.1089 15.878 10.0589C16.944 10.0119 17.283 9.9989 20 9.9989Z" fill="white"/>
</g>
<defs>
<clipPath id="clip0_302_61">
<rect width="20" height="20" fill="white" transform="translate(10 10)"/>
</clipPath>
</defs>
</svg>
