<svg width="287" height="46" viewBox="0 0 287 46" fill="none" xmlns="http://www.w3.org/2000/svg">
<mask id="mask0_79_275" style="mask-type:luminance" maskUnits="userSpaceOnUse" x="0" y="0" width="287" height="46">
<path d="M287 0H0V46H287V0Z" fill="white"/>
</mask>
<g mask="url(#mask0_79_275)">
<path fill-rule="evenodd" clip-rule="evenodd" d="M25.3828 20.3858H30.4593H45.6888V25.4821H30.4593V40.7715H35.5357V35.6752V30.5787H40.6124H45.6888V35.6752H40.6124V40.7715H45.6888V45.8682H25.3828V40.7715V25.4821V20.3858Z" fill="#59D880"/>
<path fill-rule="evenodd" clip-rule="evenodd" d="M45.6887 0V5.09639H0V0H45.6887Z" fill="#59D880"/>
<path fill-rule="evenodd" clip-rule="evenodd" d="M45.6887 10.193V15.2894H25.3827V10.193H45.6887ZM20.3059 15.2894V45.8679H15.2295V15.2894H10.153V45.8679H5.0765V15.2894H0V10.193H5.0765H10.153H15.2295H20.3059V15.2894Z" fill="#59D880"/>
<path d="M60.9764 17.4838V2.74722H53.9907V0.831638H70.0239V2.74722H63.0381V17.4838H60.9764ZM70.9161 17.4838V0.831638H83.9644V2.74722H72.9781V7.62836H79.6252V9.54394H72.9781V15.5684H84.6414V17.4838H70.9161ZM100.946 12.17L102.608 13.4058C101.849 14.8526 100.803 15.9698 99.4794 16.7474C98.1613 17.525 96.6586 17.9163 94.9711 17.9163C92.4887 17.9163 90.4371 17.0924 88.8163 15.4499C87.2008 13.8072 86.3904 11.7221 86.3904 9.19387C86.3904 6.66043 87.2008 4.56992 88.8214 2.92744C90.4474 1.28472 92.494 0.46106 94.9661 0.46106C96.4996 0.46106 97.8999 0.795687 99.1615 1.47024C100.423 2.1448 101.449 3.10766 102.239 4.35376L100.51 5.58948C99.9922 4.59574 99.2385 3.8131 98.2589 3.2517C97.2792 2.69052 96.1816 2.40729 94.9711 2.40729C93.1094 2.40729 91.5656 3.05097 90.3448 4.33301C89.1242 5.6153 88.5138 7.23704 88.5138 9.19387C88.5138 11.1555 89.1242 12.7775 90.3448 14.0545C91.5656 15.3315 93.1094 15.9698 94.9711 15.9698C96.2739 15.9698 97.4278 15.6456 98.4384 15.0019C99.4487 14.3582 100.285 13.4159 100.946 12.17ZM106.301 17.4838V0.831638H108.394V7.41218H118.18V0.831638H120.241V17.4838H118.18V9.32754H108.394V17.4838H106.301ZM125.263 17.4838V0.831638H126.345L137.11 13.277V0.831638H139.172V17.4838H138.12L127.325 5.03846V17.4838H125.263ZM151.384 15.9698C153.246 15.9698 154.791 15.3315 156.015 14.0545C157.237 12.7775 157.846 11.1555 157.846 9.19387C157.846 7.22689 157.237 5.59985 156.021 4.32287C154.805 3.0459 153.257 2.40729 151.384 2.40729C149.522 2.40729 147.978 3.05097 146.753 4.33301C145.532 5.6153 144.922 7.23704 144.922 9.19387C144.922 11.1555 145.532 12.7775 146.753 14.0545C147.978 15.3315 149.522 15.9698 151.384 15.9698ZM151.379 17.9163C148.892 17.9163 146.839 17.0924 145.224 15.4499C143.609 13.8072 142.799 11.7221 142.799 9.19387C142.799 6.66043 143.609 4.56992 145.235 2.92744C146.856 1.28472 148.902 0.46106 151.379 0.46106C153.862 0.46106 155.918 1.28472 157.554 2.93758C159.185 4.58537 160.001 6.6708 160.001 9.19387C160.001 11.7221 159.185 13.8072 157.559 15.4499C155.934 17.0924 153.872 17.9163 151.379 17.9163ZM176.86 12.17L178.522 13.4058C177.762 14.8526 176.716 15.9698 175.393 16.7474C174.075 17.525 172.572 17.9163 170.884 17.9163C168.402 17.9163 166.351 17.0924 164.73 15.4499C163.115 13.8072 162.304 11.7221 162.304 9.19387C162.304 6.66043 163.115 4.56992 164.734 2.92744C166.361 1.28472 168.407 0.46106 170.88 0.46106C172.413 0.46106 173.813 0.795687 175.075 1.47024C176.336 2.1448 177.362 3.10766 178.152 4.35376L176.423 5.58948C175.906 4.59574 175.151 3.8131 174.172 3.2517C173.193 2.69052 172.095 2.40729 170.884 2.40729C169.023 2.40729 167.479 3.05097 166.258 4.33301C165.038 5.6153 164.427 7.23704 164.427 9.19387C164.427 11.1555 165.038 12.7775 166.258 14.0545C167.479 15.3315 169.023 15.9698 170.884 15.9698C172.187 15.9698 173.341 15.6456 174.352 15.0019C175.363 14.3582 176.198 13.4159 176.86 12.17ZM189.477 15.9698C191.339 15.9698 192.882 15.3315 194.108 14.0545C195.329 12.7775 195.939 11.1555 195.939 9.19387C195.939 7.22689 195.329 5.59985 194.114 4.32287C192.898 3.0459 191.349 2.40729 189.477 2.40729C187.615 2.40729 186.071 3.05097 184.845 4.33301C183.625 5.6153 183.014 7.23704 183.014 9.19387C183.014 11.1555 183.625 12.7775 184.845 14.0545C186.071 15.3315 187.615 15.9698 189.477 15.9698ZM189.472 17.9163C186.984 17.9163 184.932 17.0924 183.317 15.4499C181.702 13.8072 180.891 11.7221 180.891 9.19387C180.891 6.66043 181.702 4.56992 183.327 2.92744C184.948 1.28472 186.994 0.46106 189.472 0.46106C191.955 0.46106 194.011 1.28472 195.647 2.93758C197.278 4.58537 198.094 6.6708 198.094 9.19387C198.094 11.7221 197.278 13.8072 195.652 15.4499C194.027 17.0924 191.965 17.9163 189.472 17.9163ZM203.69 8.24645H211.014C212.055 8.24645 212.845 8.01461 213.378 7.55115C213.917 7.093 214.183 6.41337 214.183 5.51735C214.183 4.64713 213.917 3.96244 213.378 3.47824C212.845 2.9892 212.091 2.74722 211.116 2.74722H203.69V8.24645ZM201.628 17.4838V0.831638H211.147C212.768 0.831638 214.034 1.2437 214.957 2.06229C215.876 2.88111 216.337 4.01383 216.337 5.46066C216.337 6.6655 215.979 7.69542 215.26 8.55527C214.537 9.41511 213.589 9.9507 212.409 10.1618L216.553 17.4838H214.275L210.126 10.1927H203.69V17.4838H201.628ZM222.067 8.24645H229.391C230.432 8.24645 231.222 8.01461 231.755 7.55115C232.293 7.093 232.561 6.41337 232.561 5.51735C232.561 4.64713 232.293 3.96244 231.755 3.47824C231.222 2.9892 230.468 2.74722 229.493 2.74722H222.067V8.24645ZM220.005 17.4838V0.831638H229.524C231.135 0.831638 232.401 1.23332 233.324 2.03671C234.253 2.83986 234.714 3.94169 234.714 5.33712C234.714 6.78395 234.269 7.95792 233.371 8.84887C232.478 9.74467 231.283 10.1927 229.796 10.1927H222.067V17.4838H220.005Z" fill="#59D880" stroke="#59D880" stroke-width="0.0762" stroke-miterlimit="22.9256"/>
<path d="M58.5495 31.6607H57.6512L56.0552 29.8606L57.6512 28.017H58.5587L56.9205 29.8606L58.5495 31.6607ZM56.4725 31.6607H55.5868L53.9907 29.8606L55.5868 28.017H56.4725L54.8542 29.8606L56.4725 31.6607Z" fill="#59D880"/>
<path d="M65.9575 32.7327H64.9644L64.1536 30.5778H60.9065L60.1432 32.7327H59.1465L62.0818 25.0479H63.0111L65.9575 32.7327ZM63.8584 29.7694L62.6575 26.4951C62.6193 26.387 62.5794 26.215 62.541 25.9809H62.5192C62.4845 26.1986 62.4427 26.3687 62.397 26.4951L61.2054 29.7694H63.8584Z" fill="#59D880"/>
<path d="M72.368 32.7327H71.2746L69.5127 29.7913C69.4599 29.7016 69.3998 29.5735 69.336 29.4108H69.3142C69.2795 29.4931 69.2194 29.6194 69.1337 29.7913L67.3189 32.7327H66.2183L68.7803 28.8692L66.4224 25.0479H67.521L69.0846 27.748C69.1884 27.9273 69.2795 28.1065 69.3578 28.2839H69.3799C69.4927 28.0479 69.5928 27.8632 69.6785 27.7278L71.3056 25.0479H72.337L69.9283 28.8584L72.368 32.7327Z" fill="#59D880"/>
<path d="M73.5327 32.7327V25.0479H75.7104C76.3717 25.0479 76.8984 25.2109 77.2845 25.5347C77.6728 25.8602 77.8676 26.2846 77.8676 26.8059C77.8676 27.2413 77.7492 27.6199 77.5143 27.9419C77.2792 28.2638 76.9567 28.4924 76.543 28.628V28.6498C77.0587 28.7102 77.4723 28.9058 77.782 29.2352C78.0919 29.5661 78.2466 29.9961 78.2466 30.5248C78.2466 31.1814 78.0115 31.7138 77.5416 32.1217C77.0715 32.5296 76.4792 32.7327 75.7632 32.7327H73.5327ZM74.4294 25.862V28.3443H75.3477C75.8378 28.3443 76.2242 28.2254 76.5065 27.9877C76.7873 27.7498 76.9276 27.4151 76.9276 26.9815C76.9276 26.2353 76.4392 25.862 75.4588 25.862H74.4294ZM74.4294 29.153V31.9187H75.6465C76.1732 31.9187 76.5813 31.7923 76.8711 31.5437C77.1626 31.293 77.3065 30.9491 77.3065 30.5137C77.3065 29.6065 76.6906 29.153 75.4588 29.153H74.4294Z" fill="#59D880"/>
<path d="M82.8835 32.8608C81.7977 32.8608 80.9286 32.5022 80.2762 31.7834C79.6238 31.0662 79.2959 30.1315 79.2959 28.981C79.2959 27.7443 79.6293 26.7584 80.2943 26.023C80.9596 25.2877 81.8668 24.9182 83.013 24.9182C84.0699 24.9182 84.9206 25.2766 85.5657 25.9901C86.2126 26.7052 86.5351 27.6399 86.5351 28.7943C86.5351 30.0473 86.2034 31.0387 85.5421 31.7686C84.8807 32.4967 83.995 32.8608 82.8835 32.8608ZM82.9473 25.734C82.1439 25.734 81.4915 26.0249 80.9887 26.6065C80.4876 27.1902 80.236 27.9548 80.236 28.9003C80.236 29.848 80.4803 30.609 80.9704 31.187C81.4586 31.7631 82.0982 32.0521 82.8835 32.0521C83.7235 32.0521 84.3851 31.7778 84.8697 31.2273C85.3542 30.6765 85.5949 29.9066 85.5949 28.917C85.5949 27.9018 85.3616 27.1186 84.8915 26.5644C84.4214 26.0101 83.7729 25.734 82.9473 25.734Z" fill="#59D880"/>
<path d="M93.5278 32.7327H92.4598L91.1773 30.5778C91.0607 30.3785 90.9476 30.2082 90.8364 30.0655C90.7253 29.9247 90.6123 29.8095 90.4977 29.7217C90.381 29.632 90.257 29.5661 90.1241 29.526C89.9909 29.4838 89.84 29.4638 89.6721 29.4638H88.9361V32.7327H88.0396V25.0479H90.3245C90.6578 25.0479 90.9678 25.0901 91.25 25.1743C91.5325 25.2584 91.7786 25.3846 91.9863 25.5566C92.1959 25.7285 92.358 25.9426 92.4745 26.1968C92.593 26.4529 92.6513 26.7511 92.6513 27.0949C92.6513 27.3621 92.6111 27.6091 92.531 27.8322C92.451 28.0553 92.338 28.2546 92.1904 28.4283C92.0427 28.6039 91.8641 28.754 91.6564 28.8766C91.4468 28.9992 91.2135 29.0963 90.9531 29.1638V29.184C91.0826 29.2425 91.1937 29.3064 91.2884 29.3797C91.3814 29.4546 91.4723 29.5405 91.5563 29.6412C91.642 29.7401 91.7276 29.8535 91.8114 29.9814C91.8951 30.1077 91.9881 30.2541 92.09 30.4223L93.5278 32.7327ZM88.9361 25.862V28.6498H90.1533C90.3773 28.6498 90.585 28.615 90.7744 28.5472C90.9659 28.4797 91.1299 28.3827 91.2682 28.2546C91.4069 28.1285 91.5162 27.9729 91.5945 27.7881C91.673 27.6054 91.7111 27.3986 91.7111 27.17C91.7111 26.7584 91.58 26.4384 91.3139 26.2079C91.0497 25.9772 90.6651 25.862 90.164 25.862H88.9361Z" fill="#59D880"/>
<path d="M97.5554 32.8608C96.4695 32.8608 95.6005 32.5022 94.948 31.7834C94.2956 31.0662 93.9678 30.1315 93.9678 28.981C93.9678 27.7443 94.3011 26.7584 94.9662 26.023C95.6315 25.2877 96.5386 24.9182 97.6848 24.9182C98.7417 24.9182 99.5924 25.2766 100.237 25.9901C100.884 26.7052 101.207 27.6399 101.207 28.7943C101.207 30.0473 100.875 31.0387 100.214 31.7686C99.5526 32.4967 98.6669 32.8608 97.5554 32.8608ZM97.6191 25.734C96.8157 25.734 96.1633 26.0249 95.6606 26.6065C95.1594 27.1902 94.9079 27.9548 94.9079 28.9003C94.9079 29.848 95.1521 30.609 95.6422 31.187C96.1305 31.7631 96.77 32.0521 97.5554 32.0521C98.3953 32.0521 99.0569 31.7778 99.5415 31.2273C100.026 30.6765 100.267 29.9066 100.267 28.917C100.267 27.9018 100.033 27.1186 99.5632 26.5644C99.0931 26.0101 98.4446 25.734 97.6191 25.734Z" fill="#59D880"/>
<path d="M106.748 25.862H104.538V32.7327H103.641V25.862H101.437V25.0479H106.748V25.862Z" fill="#59D880"/>
<path d="M115.474 25.862H113.263V32.7327H112.367V25.862H110.162V25.0479H115.474V25.862Z" fill="#59D880"/>
<path d="M120.732 32.7327H116.676V25.0479H120.562V25.862H117.572V28.4194H120.338V29.2278H117.572V31.9187H120.732V32.7327Z" fill="#59D880"/>
<path d="M127.49 32.7327H126.397L124.635 29.7913C124.582 29.7016 124.523 29.5735 124.458 29.4108H124.436C124.402 29.4931 124.341 29.6194 124.256 29.7913L122.441 32.7327H121.34L123.903 28.8692L121.545 25.0479H122.643L124.207 27.748C124.31 27.9273 124.402 28.1065 124.48 28.2839H124.502C124.616 28.0479 124.715 27.8632 124.8 27.7278L126.428 25.0479H127.459L125.051 28.8584L127.49 32.7327Z" fill="#59D880"/>
<path d="M134.824 32.7327H133.725L129.785 26.6065C129.685 26.4529 129.602 26.292 129.539 26.1253H129.508C129.536 26.2901 129.549 26.6414 129.549 27.1808V32.7327H128.653V25.0479H129.818L133.65 31.0772C133.81 31.3259 133.914 31.4978 133.959 31.5912H133.981C133.945 31.3699 133.927 30.9932 133.927 30.4607V25.0479H134.824V32.7327Z" fill="#59D880"/>
<path d="M139.917 32.8608C138.831 32.8608 137.962 32.5022 137.31 31.7834C136.657 31.0662 136.33 30.1315 136.33 28.981C136.33 27.7443 136.663 26.7584 137.328 26.023C137.993 25.2877 138.9 24.9182 140.047 24.9182C141.103 24.9182 141.954 25.2766 142.599 25.9901C143.246 26.7052 143.569 27.6399 143.569 28.7943C143.569 30.0473 143.237 31.0387 142.576 31.7686C141.915 32.4967 141.028 32.8608 139.917 32.8608ZM139.981 25.734C139.178 25.734 138.525 26.0249 138.022 26.6065C137.521 27.1902 137.27 27.9548 137.27 28.9003C137.27 29.848 137.514 30.609 138.003 31.187C138.492 31.7631 139.132 32.0521 139.917 32.0521C140.757 32.0521 141.419 31.7778 141.903 31.2273C142.388 30.6765 142.629 29.9066 142.629 28.917C142.629 27.9018 142.396 27.1186 141.925 26.5644C141.455 26.0101 140.807 25.734 139.981 25.734Z" fill="#59D880"/>
<path d="M149.045 32.7327H145.074V25.0479H145.97V31.9187H149.045V32.7327Z" fill="#59D880"/>
<path d="M152.93 32.8608C151.844 32.8608 150.975 32.5022 150.323 31.7834C149.669 31.0662 149.342 30.1315 149.342 28.981C149.342 27.7443 149.675 26.7584 150.341 26.023C151.006 25.2877 151.913 24.9182 153.059 24.9182C154.116 24.9182 154.966 25.2766 155.612 25.9901C156.259 26.7052 156.582 27.6399 156.582 28.7943C156.582 30.0473 156.25 31.0387 155.589 31.7686C154.927 32.4967 154.041 32.8608 152.93 32.8608ZM152.994 25.734C152.19 25.734 151.537 26.0249 151.034 26.6065C150.534 27.1902 150.282 27.9548 150.282 28.9003C150.282 29.848 150.526 30.609 151.016 31.187C151.505 31.7631 152.145 32.0521 152.93 32.0521C153.77 32.0521 154.431 31.7778 154.916 31.2273C155.4 30.6765 155.641 29.9066 155.641 28.917C155.641 27.9018 155.408 27.1186 154.938 26.5644C154.467 26.0101 153.819 25.734 152.994 25.734Z" fill="#59D880"/>
<path d="M163.808 32.2077C163.041 32.643 162.187 32.8608 161.247 32.8608C160.155 32.8608 159.271 32.5078 158.598 31.7998C157.921 31.0936 157.585 30.157 157.585 28.9919C157.585 27.8029 157.96 26.8259 158.709 26.0632C159.457 25.3006 160.407 24.9182 161.557 24.9182C162.389 24.9182 163.088 25.0554 163.653 25.3261V26.3232C163.036 25.9298 162.302 25.734 161.455 25.734C160.598 25.734 159.895 26.0304 159.346 26.623C158.798 27.2157 158.524 27.984 158.524 28.9278C158.524 29.8992 158.78 30.6638 159.287 31.218C159.796 31.7742 160.487 32.0521 161.36 32.0521C161.958 32.0521 162.475 31.9314 162.913 31.6938V29.5387H161.236V28.7247H163.808V32.2077Z" fill="#59D880"/>
<path d="M166.483 32.7327H165.586V25.0479H166.483V32.7327Z" fill="#59D880"/>
<path d="M173.471 25.0479L170.947 29.8917V32.7327H170.049V29.9139L167.588 25.0479H168.608L170.322 28.5199C170.342 28.5638 170.406 28.721 170.508 28.9918H170.524C170.561 28.8711 170.628 28.7139 170.727 28.5199L172.521 25.0479H173.471Z" fill="#59D880"/>
<path d="M179.61 32.7327H178.617L177.807 30.5778H174.56L173.797 32.7327H172.799L175.735 25.0479H176.665L179.61 32.7327ZM177.512 29.7694L176.311 26.4951C176.273 26.387 176.233 26.215 176.194 25.9809H176.172C176.138 26.1986 176.096 26.3687 176.05 26.4951L174.859 29.7694H177.512Z" fill="#59D880"/>
<path d="M184.708 32.7327H180.738V25.0479H181.634V31.9187H184.708V32.7327Z" fill="#59D880"/>
<path d="M192.129 32.7327H191.136L190.325 30.5778H187.078L186.315 32.7327H185.318L188.254 25.0479H189.183L192.129 32.7327ZM190.03 29.7694L188.829 26.4951C188.791 26.387 188.751 26.215 188.713 25.9809H188.691C188.656 26.1986 188.614 26.3687 188.568 26.4951L187.377 29.7694H190.03Z" fill="#59D880"/>
<path d="M198.743 32.7327H197.674L196.392 30.5778C196.276 30.3785 196.162 30.2082 196.051 30.0655C195.94 29.9247 195.827 29.8095 195.712 29.7217C195.595 29.632 195.472 29.5661 195.339 29.526C195.206 29.4838 195.054 29.4638 194.887 29.4638H194.151V32.7327H193.254V25.0479H195.539C195.873 25.0479 196.183 25.0901 196.465 25.1743C196.748 25.2584 196.993 25.3846 197.201 25.5566C197.41 25.7285 197.573 25.9426 197.689 26.1968C197.807 26.4529 197.866 26.7511 197.866 27.0949C197.866 27.3621 197.826 27.6091 197.745 27.8322C197.666 28.0553 197.553 28.2546 197.406 28.4283C197.257 28.6039 197.078 28.754 196.872 28.8766C196.662 28.9992 196.429 29.0963 196.168 29.1638V29.184C196.298 29.2425 196.408 29.3064 196.503 29.3797C196.596 29.4546 196.687 29.5405 196.771 29.6412C196.857 29.7401 196.943 29.8535 197.026 29.9814C197.109 30.1077 197.202 30.2541 197.305 30.4223L198.743 32.7327ZM194.151 25.862V28.6498H195.368C195.592 28.6498 195.8 28.615 195.989 28.5472C196.181 28.4797 196.345 28.3827 196.483 28.2546C196.621 28.1285 196.731 27.9729 196.81 27.7881C196.888 27.6054 196.926 27.3986 196.926 27.17C196.926 26.7584 196.795 26.4384 196.528 26.2079C196.264 25.9772 195.88 25.862 195.379 25.862H194.151Z" fill="#59D880"/>
<path d="M200.691 32.7327H199.794V25.0479H200.691V32.7327Z" fill="#59D880"/>
<path d="M211.391 25.0479L208.555 32.7327H207.568L204.793 25.0479H205.791L207.91 31.1413C207.978 31.337 208.028 31.5637 208.065 31.8216H208.085C208.114 31.6077 208.173 31.3771 208.262 31.1303L210.425 25.0479H211.391Z" fill="#59D880"/>
<path d="M217.775 32.7327H216.782L215.971 30.5778H212.724L211.961 32.7327H210.964L213.9 25.0479H214.829L217.775 32.7327ZM215.676 29.7694L214.475 26.4951C214.437 26.387 214.397 26.215 214.359 25.9809H214.337C214.302 26.1986 214.26 26.3687 214.214 26.4951L213.023 29.7694H215.676Z" fill="#59D880"/>
<path d="M227.823 32.7327H226.829L226.018 30.5778H222.772L222.008 32.7327H221.012L223.947 25.0479H224.876L227.823 32.7327ZM225.723 29.7694L224.522 26.4951C224.484 26.387 224.444 26.215 224.405 25.9809H224.383C224.349 26.1986 224.308 26.3687 224.262 26.4951L223.07 29.7694H225.723Z" fill="#59D880"/>
<path d="M234.232 32.7327H233.138L231.376 29.7913C231.323 29.7016 231.264 29.5735 231.199 29.4108H231.178C231.143 29.4931 231.083 29.6194 230.997 29.7913L229.182 32.7327H228.083L230.644 28.8692L228.287 25.0479H229.386L230.949 27.748C231.052 27.9273 231.143 28.1065 231.221 28.2839H231.244C231.357 28.0479 231.457 27.8632 231.543 27.7278L233.169 25.0479H234.201L231.792 28.8584L234.232 32.7327Z" fill="#59D880"/>
<path d="M235.396 32.7327V25.0479H237.574C238.235 25.0479 238.761 25.2109 239.148 25.5347C239.536 25.8602 239.731 26.2846 239.731 26.8059C239.731 27.2413 239.613 27.6199 239.378 27.9419C239.142 28.2638 238.82 28.4924 238.407 28.628V28.6498C238.922 28.7102 239.335 28.9058 239.645 29.2352C239.955 29.5661 240.11 29.9961 240.11 30.5248C240.11 31.1814 239.875 31.7138 239.405 32.1217C238.935 32.5296 238.342 32.7327 237.627 32.7327H235.396ZM236.293 25.862V28.3443H237.211C237.702 28.3443 238.087 28.2254 238.37 27.9877C238.651 27.7498 238.791 27.4151 238.791 26.9815C238.791 26.2353 238.303 25.862 237.323 25.862H236.293ZM236.293 29.153V31.9187H237.51C238.037 31.9187 238.444 31.7923 238.735 31.5437C239.026 31.293 239.17 30.9491 239.17 30.5137C239.17 29.6065 238.555 29.153 237.323 29.153H236.293Z" fill="#59D880"/>
<path d="M244.747 32.8608C243.662 32.8608 242.793 32.5022 242.14 31.7834C241.488 31.0662 241.159 30.1315 241.159 28.981C241.159 27.7443 241.493 26.7584 242.158 26.023C242.823 25.2876 243.731 24.9182 244.876 24.9182C245.934 24.9182 246.784 25.2766 247.43 25.9901C248.076 26.7052 248.398 27.6399 248.398 28.7943C248.398 30.0473 248.067 31.0387 247.405 31.7686C246.744 32.4967 245.859 32.8608 244.747 32.8608ZM244.811 25.734C244.007 25.734 243.355 26.0249 242.852 26.6065C242.351 27.19 242.099 27.9548 242.099 28.9003C242.099 29.848 242.344 30.609 242.834 31.187C243.322 31.7631 243.961 32.0521 244.747 32.0521C245.587 32.0521 246.248 31.7778 246.734 31.2273C247.218 30.6765 247.458 29.9066 247.458 28.9169C247.458 27.9018 247.225 27.1186 246.756 26.5644C246.285 26.0101 245.636 25.734 244.811 25.734Z" fill="#59D880"/>
<path d="M255.391 32.7327H254.323L253.041 30.5778C252.924 30.3785 252.811 30.2082 252.7 30.0655C252.588 29.9247 252.476 29.8095 252.361 29.7217C252.244 29.632 252.12 29.5661 251.987 29.526C251.854 29.4838 251.703 29.4638 251.536 29.4638H250.8V32.7327H249.903V25.0479H252.188C252.521 25.0479 252.831 25.0901 253.113 25.1743C253.396 25.2584 253.642 25.3846 253.85 25.5566C254.059 25.7285 254.221 25.9426 254.338 26.1968C254.456 26.4529 254.515 26.7511 254.515 27.0949C254.515 27.3621 254.475 27.6091 254.394 27.8322C254.314 28.0553 254.201 28.2546 254.053 28.4283C253.906 28.6039 253.727 28.754 253.52 28.8766C253.311 28.9992 253.076 29.0963 252.817 29.1638V29.184C252.946 29.2425 253.057 29.3064 253.152 29.3797C253.245 29.4546 253.336 29.5405 253.42 29.6412C253.506 29.7401 253.591 29.8535 253.674 29.9814C253.758 30.1077 253.851 30.2541 253.953 30.4223L255.391 32.7327ZM250.8 25.862V28.6498H252.017C252.241 28.6498 252.448 28.615 252.638 28.5472C252.83 28.4797 252.994 28.3827 253.131 28.2546C253.27 28.1285 253.379 27.9729 253.458 27.7881C253.537 27.6054 253.575 27.3986 253.575 27.17C253.575 26.7584 253.444 26.4384 253.177 26.2079C252.913 25.9772 252.529 25.862 252.027 25.862H250.8Z" fill="#59D880"/>
<path d="M259.421 32.8608C258.335 32.8608 257.466 32.5022 256.813 31.7834C256.161 31.0662 255.834 30.1315 255.834 28.981C255.834 27.7443 256.167 26.7584 256.832 26.023C257.497 25.2876 258.404 24.9182 259.55 24.9182C260.607 24.9182 261.458 25.2766 262.103 25.9901C262.75 26.7052 263.072 27.6399 263.072 28.7943C263.072 30.0473 262.74 31.0387 262.079 31.7686C261.418 32.4967 260.533 32.8608 259.421 32.8608ZM259.485 25.734C258.681 25.734 258.029 26.0249 257.526 26.6065C257.026 27.19 256.773 27.9548 256.773 28.9003C256.773 29.848 257.018 30.609 257.508 31.187C257.996 31.7631 258.636 32.0521 259.421 32.0521C260.261 32.0521 260.923 31.7778 261.408 31.2273C261.892 30.6765 262.132 29.9066 262.132 28.9169C262.132 27.9018 261.899 27.1186 261.429 26.5644C260.959 26.0101 260.31 25.734 259.485 25.734Z" fill="#59D880"/>
<path d="M268.614 25.862H266.404V32.7327H265.507V25.862H263.302V25.0479H268.614V25.862Z" fill="#59D880"/>
<path d="M262.025 42.9891L260.421 44.8H259.539L261.152 42.9891L259.539 41.1562H260.421L262.025 42.9891ZM259.951 42.9891L258.354 44.8H257.447L259.091 42.9891L257.447 41.1562H258.354L259.951 42.9891Z" fill="#59D880"/>
<path d="M59.9912 45.8719H58.9233L57.6408 43.7171C57.5241 43.5177 57.4109 43.3474 57.2998 43.2048C57.1887 43.0639 57.0758 42.9487 56.961 42.861C56.8444 42.7713 56.7204 42.7054 56.5875 42.6652C56.4544 42.623 56.3033 42.603 56.1355 42.603H55.3995V45.8719H54.5029V38.1871H56.7879C57.1213 38.1871 57.4311 38.2293 57.7135 38.3134C57.9958 38.3976 58.242 38.5239 58.4498 38.6958C58.6593 38.8677 58.8214 39.0818 58.938 39.336C59.0565 39.592 59.1148 39.8903 59.1148 40.2341C59.1148 40.5012 59.0746 40.7483 58.9945 40.9714C58.9143 41.1944 58.8014 41.3938 58.6538 41.5676C58.5061 41.7432 58.3276 41.8932 58.1198 42.0158C57.9102 42.1384 57.677 42.2355 57.4164 42.303V42.3232C57.5459 42.3818 57.6571 42.4456 57.7519 42.519C57.8448 42.5938 57.9357 42.6797 58.0197 42.7805C58.1054 42.8794 58.191 42.9928 58.2748 43.1206C58.3586 43.2469 58.4516 43.3933 58.5534 43.5615L59.9912 45.8719ZM55.3995 39.0011V41.789H56.6166C56.8407 41.789 57.0485 41.7542 57.2378 41.6865C57.4293 41.619 57.5932 41.5219 57.7317 41.3938C57.8702 41.2678 57.9795 41.1122 58.0578 40.9274C58.1363 40.7446 58.1745 40.5378 58.1745 40.3092C58.1745 39.8976 58.0434 39.5775 57.7774 39.347C57.5131 39.1163 57.1286 39.0011 56.6274 39.0011H55.3995Z" fill="#59D880"/>
<path d="M65.0985 45.8719H61.0425V38.1871H64.9291V39.0011H61.9391V41.5586H64.7051V42.367H61.9391V45.0579H65.0985V45.8719Z" fill="#59D880"/>
<path d="M66.2129 45.561V44.5C66.3349 44.6078 66.4807 44.7029 66.6483 44.789C66.8178 44.8749 66.9963 44.9482 67.182 45.0068C67.3698 45.0653 67.5577 45.1108 67.7451 45.1439C67.9348 45.175 68.1097 45.1913 68.2682 45.1913C68.8202 45.1913 69.232 45.089 69.5055 44.8822C69.7767 44.6774 69.9136 44.3811 69.9136 43.9968C69.9136 43.7882 69.8679 43.6092 69.7767 43.4555C69.6856 43.3018 69.5601 43.161 69.4015 43.0346C69.2412 42.9068 69.0516 42.786 68.8331 42.6689C68.6124 42.5537 68.3773 42.4311 68.1242 42.303C67.8581 42.1676 67.6086 42.0287 67.3772 41.8895C67.1458 41.7505 66.9453 41.5968 66.7741 41.4285C66.6026 41.2603 66.4697 41.0702 66.3712 40.8579C66.2729 40.6457 66.2237 40.397 66.2237 40.1115C66.2237 39.7602 66.3003 39.4568 66.4534 39.1971C66.6063 38.9373 66.8086 38.725 67.0564 38.5568C67.306 38.3883 67.5903 38.2641 67.9091 38.1816C68.2264 38.0993 68.5523 38.0574 68.8822 38.0574C69.6366 38.0574 70.1868 38.1489 70.5329 38.3316V39.3452C70.0812 39.0304 69.5 38.8732 68.7929 38.8732C68.5961 38.8732 68.4012 38.8933 68.2043 38.9336C68.0094 38.9756 67.8344 39.0433 67.6813 39.1348C67.5285 39.2281 67.4045 39.3487 67.3079 39.495C67.2112 39.6413 67.1639 39.8188 67.1639 40.0311C67.1639 40.2267 67.2004 40.397 67.2732 40.5397C67.3462 40.6823 67.4537 40.8121 67.5958 40.9311C67.7378 41.0481 67.9127 41.1634 68.1168 41.2733C68.3208 41.3848 68.5578 41.5056 68.8239 41.6372C69.0991 41.7742 69.3578 41.9169 69.6037 42.0669C69.8498 42.217 70.0647 42.3836 70.2488 42.5645C70.4347 42.7475 70.5805 42.9487 70.6897 43.1702C70.799 43.3915 70.8518 43.6456 70.8518 43.9309C70.8518 44.3099 70.7791 44.6315 70.6314 44.8934C70.4838 45.1567 70.2835 45.3706 70.0337 45.5336C69.7823 45.6981 69.4926 45.8171 69.1664 45.8901C68.8386 45.9633 68.494 46 68.1297 46C68.0094 46 67.8599 45.9908 67.6813 45.9707C67.5046 45.9505 67.3225 45.9231 67.1366 45.8848C66.9524 45.8481 66.7776 45.8004 66.6118 45.7455C66.446 45.6908 66.3129 45.6285 66.2129 45.561Z" fill="#59D880"/>
<path d="M77.9805 42.7639C77.9805 44.9207 77.0111 46 75.0706 46C73.214 46 72.2847 44.9627 72.2847 42.8865V38.1871H73.1811V42.828C73.1811 44.4029 73.8443 45.1913 75.1673 45.1913C76.4446 45.1913 77.0841 44.4304 77.0841 42.9086V38.1871H77.9805V42.7639Z" fill="#59D880"/>
<path d="M85.38 45.8719H84.312L83.0294 43.7171C82.9128 43.5177 82.7997 43.3474 82.6886 43.2048C82.5775 43.0639 82.4645 42.9487 82.3497 42.861C82.2331 42.7713 82.1092 42.7054 81.9763 42.6652C81.8431 42.623 81.692 42.603 81.5243 42.603H80.7883V45.8719H79.8916V38.1871H82.1767C82.51 38.1871 82.8199 38.2293 83.1022 38.3134C83.3846 38.3976 83.6306 38.5239 83.8384 38.6958C84.0481 38.8677 84.21 39.0818 84.3267 39.336C84.4451 39.592 84.5035 39.8903 84.5035 40.2341C84.5035 40.5012 84.4633 40.7483 84.3832 40.9714C84.303 41.1944 84.1901 41.3938 84.0425 41.5676C83.8949 41.7432 83.7163 41.8932 83.5085 42.0158C83.299 42.1384 83.0657 42.2355 82.8052 42.303V42.3232C82.9346 42.3818 83.0457 42.4456 83.1406 42.519C83.2335 42.5938 83.3245 42.6797 83.4085 42.7805C83.4941 42.8794 83.5797 42.9928 83.6635 43.1206C83.7473 43.2469 83.8403 43.3933 83.9422 43.5615L85.38 45.8719ZM80.7883 39.0011V41.789H82.0054C82.2294 41.789 82.4372 41.7542 82.6266 41.6865C82.8181 41.619 82.9819 41.5219 83.1204 41.3938C83.259 41.2678 83.3683 41.1122 83.4466 40.9274C83.525 40.7446 83.5631 40.5378 83.5631 40.3092C83.5631 39.8976 83.4322 39.5775 83.166 39.347C82.9018 39.1163 82.5173 39.0011 82.0162 39.0011H80.7883Z" fill="#59D880"/>
<path d="M86.0718 45.561V44.5C86.1939 44.6078 86.3396 44.7029 86.5072 44.789C86.6767 44.8749 86.8553 44.9482 87.0409 45.0068C87.2287 45.0653 87.4165 45.1108 87.604 45.1439C87.7937 45.175 87.9686 45.1913 88.127 45.1913C88.6791 45.1913 89.0909 45.089 89.3644 44.8822C89.6356 44.6774 89.7725 44.3811 89.7725 43.9968C89.7725 43.7882 89.7268 43.6092 89.6356 43.4555C89.5445 43.3018 89.419 43.161 89.2603 43.0346C89.1001 42.9068 88.9104 42.786 88.692 42.6689C88.4713 42.5537 88.2362 42.4311 87.9831 42.303C87.717 42.1676 87.4675 42.0287 87.2361 41.8895C87.0046 41.7505 86.8043 41.5968 86.633 41.4285C86.4615 41.2603 86.3286 41.0702 86.2302 40.8579C86.1319 40.6457 86.0826 40.397 86.0826 40.1115C86.0826 39.7602 86.1593 39.4568 86.3124 39.1971C86.4652 38.9373 86.6675 38.725 86.9154 38.5568C87.1649 38.3883 87.4491 38.2641 87.7679 38.1816C88.0853 38.0993 88.4112 38.0574 88.7411 38.0574C89.4955 38.0574 90.0457 38.1489 90.3918 38.3316V39.3452C89.9401 39.0304 89.3588 38.8732 88.6518 38.8732C88.455 38.8732 88.2601 38.8933 88.0632 38.9336C87.8683 38.9756 87.6933 39.0433 87.5403 39.1348C87.3874 39.2281 87.2634 39.3487 87.1667 39.495C87.0701 39.6413 87.0228 39.8188 87.0228 40.0311C87.0228 40.2267 87.0593 40.397 87.1321 40.5397C87.2051 40.6823 87.3125 40.8121 87.4547 40.9311C87.5968 41.0481 87.7716 41.1634 87.9757 41.2733C88.1799 41.3848 88.4167 41.5056 88.6828 41.6372C88.958 41.7742 89.2167 41.9169 89.4626 42.0669C89.7086 42.217 89.9235 42.3836 90.1077 42.5645C90.2935 42.7475 90.4393 42.9487 90.5486 43.1702C90.6579 43.3915 90.7107 43.6456 90.7107 43.9309C90.7107 44.3099 90.6379 44.6315 90.4903 44.8934C90.3427 45.1567 90.1422 45.3706 89.8926 45.5336C89.6411 45.6981 89.3515 45.8171 89.0252 45.8901C88.6975 45.9633 88.3529 46 87.9886 46C87.8683 46 87.7188 45.9908 87.5403 45.9707C87.3635 45.9505 87.1814 45.9231 86.9955 45.8848C86.8114 45.8481 86.6365 45.8004 86.4707 45.7455C86.305 45.6908 86.1719 45.6285 86.0718 45.561Z" fill="#59D880"/>
<path d="M96.2107 45.8719H92.2402V38.1871H93.1369V45.0579H96.2107V45.8719Z" fill="#59D880"/>
<path d="M103.631 45.8719H102.638L101.827 43.7171H98.5798L97.8165 45.8719H96.8198L99.7553 38.1871H100.684L103.631 45.8719ZM101.532 42.9086L100.331 39.6342C100.293 39.5261 100.253 39.3542 100.214 39.12H100.193C100.158 39.3378 100.116 39.5079 100.07 39.6342L98.8788 42.9086H101.532Z" fill="#59D880"/>
<path d="M110.246 45.8719H109.178L107.895 43.7171C107.779 43.5177 107.665 43.3474 107.554 43.2048C107.443 43.0639 107.33 42.9487 107.215 42.861C107.099 42.7713 106.975 42.7054 106.842 42.6652C106.709 42.623 106.558 42.603 106.39 42.603H105.654V45.8719H104.757V38.1871H107.042C107.376 38.1871 107.686 38.2293 107.968 38.3134C108.25 38.3976 108.496 38.5239 108.704 38.6958C108.914 38.8677 109.076 39.0818 109.192 39.336C109.311 39.592 109.369 39.8903 109.369 40.2341C109.369 40.5012 109.329 40.7483 109.249 40.9714C109.169 41.1944 109.056 41.3938 108.908 41.5676C108.761 41.7432 108.582 41.8932 108.374 42.0158C108.165 42.1384 107.931 42.2355 107.671 42.303V42.3232C107.8 42.3818 107.911 42.4456 108.006 42.519C108.099 42.5938 108.19 42.6797 108.274 42.7805C108.36 42.8794 108.445 42.9928 108.529 43.1206C108.613 43.2469 108.706 43.3933 108.808 43.5615L110.246 45.8719ZM105.654 39.0011V41.789H106.871C107.095 41.789 107.303 41.7542 107.492 41.6865C107.684 41.619 107.848 41.5219 107.986 41.3938C108.125 41.2678 108.234 41.1122 108.312 40.9274C108.391 40.7446 108.429 40.5378 108.429 40.3092C108.429 39.8976 108.298 39.5775 108.032 39.347C107.767 39.1163 107.383 39.0011 106.882 39.0011H105.654Z" fill="#59D880"/>
<path d="M112.193 45.8719H111.296V38.1871H112.193V45.8719Z" fill="#59D880"/>
<path d="M120.377 45.8719H119.277L115.337 39.7457C115.237 39.592 115.155 39.4312 115.091 39.2646H115.06C115.088 39.4294 115.102 39.7806 115.102 40.32V45.8719H114.206V38.1871H115.37L119.202 44.2165C119.362 44.4652 119.466 44.6371 119.511 44.7304H119.533C119.497 44.5091 119.479 44.1324 119.479 43.6V38.1871H120.377V45.8719Z" fill="#59D880"/>
<path d="M123.282 45.8719H122.384V38.1871H123.282V45.8719Z" fill="#59D880"/>
<path d="M133.778 45.8719H132.71L131.427 43.7171C131.311 43.5177 131.197 43.3474 131.086 43.2048C130.975 43.0639 130.862 42.9487 130.747 42.861C130.631 42.7713 130.507 42.7054 130.374 42.6652C130.241 42.623 130.089 42.603 129.922 42.603H129.186V45.8719H128.289V38.1871H130.574C130.908 38.1871 131.218 38.2293 131.5 38.3134C131.782 38.3976 132.028 38.5239 132.236 38.6958C132.446 38.8677 132.608 39.0818 132.724 39.336C132.843 39.592 132.901 39.8903 132.901 40.2341C132.901 40.5012 132.86 40.7483 132.781 40.9714C132.701 41.1944 132.587 41.3938 132.44 41.5676C132.292 41.7432 132.114 41.8932 131.906 42.0158C131.696 42.1384 131.463 42.2355 131.203 42.303V42.3232C131.332 42.3818 131.444 42.4456 131.538 42.519C131.631 42.5938 131.722 42.6797 131.805 42.7805C131.891 42.8794 131.978 42.9928 132.061 43.1206C132.145 43.2469 132.238 43.3933 132.339 43.5615L133.778 45.8719ZM129.186 39.0011V41.789H130.403C130.626 41.789 130.834 41.7542 131.024 41.6865C131.215 41.619 131.379 41.5219 131.518 41.3938C131.656 41.2678 131.765 41.1122 131.844 40.9274C131.922 40.7446 131.96 40.5378 131.96 40.3092C131.96 39.8976 131.829 39.5775 131.563 39.347C131.299 39.1163 130.915 39.0011 130.414 39.0011H129.186Z" fill="#59D880"/>
<path d="M135.726 45.8719H134.829V38.1871H135.726V45.8719Z" fill="#59D880"/>
<path d="M143.43 38.1871L140.594 45.8719H139.607L136.831 38.1871H137.83L139.949 44.2805C140.017 44.4763 140.067 44.703 140.104 44.9609H140.124C140.153 44.747 140.212 44.5163 140.3 44.2695L142.463 38.1871H143.43Z" fill="#59D880"/>
<path d="M147.348 46C146.262 46 145.393 45.6415 144.74 44.9226C144.088 44.2054 143.761 43.2706 143.761 42.1202C143.761 40.8836 144.094 39.8977 144.758 39.1622C145.424 38.4268 146.331 38.0574 147.477 38.0574C148.534 38.0574 149.385 38.4158 150.03 39.1292C150.677 39.8444 150.999 40.7791 150.999 41.9335C150.999 43.1866 150.668 44.178 150.006 44.9079C149.345 45.6359 148.46 46 147.348 46ZM147.411 38.8732C146.608 38.8732 145.956 39.1641 145.453 39.7458C144.952 40.3293 144.7 41.094 144.7 42.0395C144.7 42.9871 144.944 43.7482 145.435 44.3262C145.922 44.9023 146.563 45.1913 147.348 45.1913C148.187 45.1913 148.85 44.9171 149.334 44.3664C149.819 43.8157 150.059 43.0457 150.059 42.0561C150.059 41.041 149.826 40.2578 149.356 39.7035C148.885 39.1494 148.237 38.8732 147.411 38.8732Z" fill="#59D880"/>
<path d="M154.411 43.117C154.411 44.028 154.219 44.7359 153.834 45.2427C153.45 45.7475 152.934 46 152.292 46C151.993 46 151.746 45.9578 151.556 45.8719V44.9827C151.746 45.122 151.997 45.1913 152.302 45.1913C153.11 45.1913 153.514 44.5036 153.514 43.128V38.1871H154.411V43.117Z" fill="#59D880"/>
<path d="M160.324 45.8719H156.353V38.1871H157.25V45.0579H160.324V45.8719Z" fill="#59D880"/>
<path d="M167.746 45.8719H166.751L165.941 43.7171H162.694L161.931 45.8719H160.935L163.869 38.1871H164.799L167.746 45.8719ZM165.646 42.9086L164.445 39.6342C164.407 39.5261 164.367 39.3542 164.328 39.12H164.306C164.272 39.3378 164.23 39.5079 164.185 39.6342L162.993 42.9086H165.646Z" fill="#59D880"/>
<path d="M175.043 45.8719H173.943L170.003 39.7457C169.903 39.592 169.821 39.4312 169.757 39.2646H169.726C169.754 39.4294 169.769 39.7806 169.769 40.32V45.8719H168.872V38.1871H170.036L173.868 44.2165C174.028 44.4652 174.132 44.6371 174.178 44.7304H174.2C174.163 44.5091 174.145 44.1324 174.145 43.6V38.1871H175.043V45.8719Z" fill="#59D880"/>
<path d="M181.575 39.0011H179.366V45.8719H178.469V39.0011H176.264V38.1871H181.575V39.0011Z" fill="#59D880"/>
<path d="M183.674 45.8719H182.778V38.1871H183.674V45.8719Z" fill="#59D880"/>
<path d="M191.177 45.8719H190.109L188.825 43.7171C188.71 43.5177 188.596 43.3474 188.485 43.2048C188.374 43.0639 188.261 42.9487 188.146 42.861C188.03 42.7713 187.906 42.7054 187.773 42.6652C187.64 42.623 187.488 42.603 187.32 42.603H186.585V45.8719H185.688V38.1871H187.973C188.307 38.1871 188.617 38.2293 188.899 38.3134C189.181 38.3976 189.427 38.5239 189.635 38.6958C189.845 38.8677 190.007 39.0818 190.123 39.336C190.242 39.592 190.3 39.8903 190.3 40.2341C190.3 40.5012 190.259 40.7483 190.18 40.9714C190.1 41.1944 189.986 41.3938 189.839 41.5676C189.691 41.7432 189.513 41.8932 189.305 42.0158C189.095 42.1384 188.862 42.2355 188.602 42.303V42.3232C188.731 42.3818 188.843 42.4456 188.937 42.519C189.03 42.5938 189.121 42.6797 189.205 42.7805C189.29 42.8794 189.377 42.9928 189.46 43.1206C189.544 43.2469 189.637 43.3933 189.738 43.5615L191.177 45.8719ZM186.585 39.0011V41.789H187.801C188.025 41.789 188.233 41.7542 188.423 41.6865C188.614 41.619 188.778 41.5219 188.917 41.3938C189.055 41.2678 189.165 41.1122 189.243 40.9274C189.321 40.7446 189.359 40.5378 189.359 40.3092C189.359 39.8976 189.228 39.5775 188.962 39.347C188.698 39.1163 188.313 39.0011 187.813 39.0011H186.585Z" fill="#59D880"/>
<path d="M193.124 45.8719H192.227V38.1871H193.124V45.8719Z" fill="#59D880"/>
<path d="M194.779 45.561V44.5C194.9 44.6078 195.046 44.7029 195.214 44.789C195.384 44.8749 195.562 44.9482 195.748 45.0068C195.936 45.0653 196.123 45.1108 196.311 45.1439C196.501 45.175 196.675 45.1913 196.834 45.1913C197.386 45.1913 197.798 45.089 198.071 44.8822C198.342 44.6774 198.48 44.3811 198.48 43.9968C198.48 43.7882 198.434 43.6092 198.342 43.4555C198.252 43.3018 198.126 43.161 197.968 43.0346C197.807 42.9068 197.618 42.786 197.399 42.6689C197.178 42.5537 196.943 42.4311 196.69 42.303C196.424 42.1676 196.175 42.0287 195.943 41.8895C195.712 41.7505 195.511 41.5968 195.34 41.4285C195.169 41.2603 195.036 41.0702 194.937 40.8579C194.839 40.6457 194.789 40.397 194.789 40.1115C194.789 39.7602 194.866 39.4568 195.02 39.1971C195.173 38.9373 195.375 38.725 195.623 38.5568C195.872 38.3883 196.156 38.2641 196.476 38.1816C196.792 38.0993 197.118 38.0574 197.448 38.0574C198.202 38.0574 198.753 38.1489 199.099 38.3316V39.3452C198.648 39.0304 198.066 38.8732 197.358 38.8732C197.162 38.8732 196.967 38.8933 196.771 38.9336C196.575 38.9756 196.401 39.0433 196.247 39.1348C196.094 39.2281 195.97 39.3487 195.874 39.495C195.778 39.6413 195.729 39.8188 195.729 40.0311C195.729 40.2267 195.766 40.397 195.84 40.5397C195.912 40.6823 196.02 40.8121 196.162 40.9311C196.303 41.0481 196.479 41.1634 196.682 41.2733C196.887 41.3848 197.124 41.5056 197.389 41.6372C197.665 41.7742 197.923 41.9169 198.17 42.0669C198.416 42.217 198.63 42.3836 198.815 42.5645C199.001 42.7475 199.147 42.9487 199.256 43.1702C199.365 43.3915 199.418 43.6456 199.418 43.9309C199.418 44.3099 199.344 44.6315 199.197 44.8934C199.049 45.1567 198.85 45.3706 198.599 45.5336C198.348 45.6981 198.059 45.8171 197.733 45.8901C197.404 45.9633 197.06 46 196.696 46C196.575 46 196.426 45.9908 196.247 45.9707C196.07 45.9505 195.889 45.9231 195.703 45.8848C195.518 45.8481 195.344 45.8004 195.178 45.7455C195.012 45.6908 194.879 45.6285 194.779 45.561Z" fill="#59D880"/>
<path d="M206.701 45.8719H205.804V42.367H201.842V45.8719H200.946V38.1871H201.842V41.5586H205.804V38.1871H206.701V45.8719Z" fill="#59D880"/>
<path d="M219.508 45.8719H218.617V40.7171C218.617 40.3092 218.641 39.8116 218.691 39.2208H218.67C218.585 39.5683 218.508 39.8151 218.44 39.9651L215.826 45.8719H215.386L212.777 40.0092C212.702 39.8373 212.625 39.5756 212.547 39.2208H212.526C212.554 39.5279 212.568 40.031 212.568 40.7261V45.8719H211.704V38.1871H212.888L215.237 43.5452C215.42 43.9568 215.536 44.264 215.591 44.4671H215.622C215.774 44.0464 215.898 43.7316 215.989 43.5249L218.387 38.1871H219.508V45.8719Z" fill="#59D880"/>
<path d="M227.446 45.8719H226.453L225.643 43.7171H222.396L221.633 45.8719H220.635L223.571 38.1871H224.501L227.446 45.8719ZM225.348 42.9086L224.147 39.6342C224.109 39.5261 224.069 39.3542 224.03 39.12H224.008C223.974 39.3378 223.932 39.5079 223.886 39.6342L222.695 42.9086H225.348Z" fill="#59D880"/>
<path d="M234.061 45.8719H232.994L231.711 43.7171C231.594 43.5177 231.482 43.3474 231.37 43.2048C231.259 43.0639 231.147 42.9487 231.032 42.861C230.915 42.7713 230.791 42.7054 230.658 42.6652C230.524 42.623 230.374 42.603 230.206 42.603H229.47V45.8719H228.573V38.1871H230.858C231.191 38.1871 231.501 38.2293 231.784 38.3134C232.066 38.3976 232.313 38.5239 232.52 38.6958C232.73 38.8677 232.892 39.0818 233.009 39.336C233.127 39.592 233.185 39.8903 233.185 40.2341C233.185 40.5012 233.145 40.7483 233.065 40.9714C232.985 41.1944 232.872 41.3938 232.724 41.5676C232.577 41.7432 232.398 41.8932 232.19 42.0158C231.981 42.1384 231.747 42.2355 231.486 42.303V42.3232C231.616 42.3818 231.727 42.4456 231.823 42.519C231.916 42.5938 232.006 42.6797 232.09 42.7805C232.176 42.8794 232.261 42.9928 232.345 43.1206C232.429 43.2469 232.522 43.3933 232.624 43.5615L234.061 45.8719ZM229.47 39.0011V41.789H230.687C230.911 41.789 231.119 41.7542 231.308 41.6865C231.5 41.619 231.663 41.5219 231.802 41.3938C231.941 41.2678 232.05 41.1122 232.128 40.9274C232.207 40.7446 232.245 40.5378 232.245 40.3092C232.245 39.8976 232.114 39.5775 231.848 39.347C231.584 39.1163 231.199 39.0011 230.698 39.0011H229.47Z" fill="#59D880"/>
<path d="M240.441 45.8719H239.19L236.233 42.356C236.124 42.2243 236.054 42.1347 236.031 42.0891H236.009V45.8719H235.113V38.1871H236.009V41.7982H236.031C236.081 41.7195 236.147 41.6335 236.233 41.5366L239.094 38.1871H240.211L236.928 41.8731L240.441 45.8719Z" fill="#59D880"/>
<path d="M247.379 45.8719H246.386L245.574 43.7171H242.328L241.564 45.8719H240.568L243.503 38.1871H244.432L247.379 45.8719ZM245.279 42.9086L244.078 39.6342C244.041 39.5261 244 39.3542 243.963 39.12H243.941C243.905 39.3378 243.864 39.5079 243.818 39.6342L242.626 42.9086H245.279Z" fill="#59D880"/>
<path d="M253.822 38.4013L249.338 45.0579H253.714V45.8719H247.998V45.6196L252.444 39.0011H248.356V38.1871H253.822V38.4013Z" fill="#59D880"/>
<path d="M255.957 45.8719H255.061V38.1871H255.957V45.8719Z" fill="#59D880"/>
<path d="M266.497 45.8719V38.1871H268.61C271.307 38.1871 272.657 39.4349 272.657 41.9335C272.657 43.1188 272.281 44.072 271.533 44.7926C270.783 45.5115 269.781 45.8719 268.524 45.8719H266.497ZM267.393 39.0011V45.0579H268.535C269.539 45.0579 270.319 44.7871 270.878 44.2476C271.438 43.7078 271.717 42.9432 271.717 41.9536C271.717 39.9854 270.674 39.0011 268.588 39.0011H267.393Z" fill="#59D880"/>
<path d="M279.761 42.7639C279.761 44.9207 278.792 46 276.851 46C274.994 46 274.064 44.9627 274.064 42.8865V38.1871H274.961V42.828C274.961 44.4029 275.625 45.1913 276.947 45.1913C278.225 45.1913 278.864 44.4304 278.864 42.9086V38.1871H279.761V42.7639Z" fill="#59D880"/>
<path d="M287 45.8719H285.751L282.793 42.356C282.683 42.2243 282.614 42.1347 282.59 42.0891H282.568V45.8719H281.672V38.1871H282.568V41.7982H282.59C282.64 41.7195 282.707 41.6335 282.793 41.5366L285.654 38.1871H286.77L283.487 41.8731L287 45.8719Z" fill="#59D880"/>
</g>
</svg>
