<svg width="60" height="60" viewBox="0 0 60 60" fill="none" xmlns="http://www.w3.org/2000/svg">
<path d="M6.26053 16.2999H6.26051C5.59417 16.2999 5.04941 16.8291 5.04941 17.4921C5.04941 18.155 5.59416 18.6842 6.2605 18.6842C6.26051 18.6842 6.26051 18.6842 6.26051 18.6842L7.17404 18.6843H7.17405C11.4284 18.6843 14.8809 22.0773 14.8809 26.2427V31.1504C14.8809 32.9274 15.2951 34.5614 16.1825 35.7565C17.0758 36.9595 18.4362 37.7 20.2797 37.7H21.5065C23.3747 37.7 24.6851 36.7092 25.5185 35.2841C26.3473 33.867 26.7109 32.0144 26.7109 30.2421C26.7109 29.5791 26.1661 29.05 25.4998 29.05C24.8334 29.05 24.2887 29.5791 24.2887 30.2421C24.2887 31.4373 24.1566 32.7229 23.7341 33.7026C23.5237 34.1903 23.2455 34.5925 22.885 34.8723C22.5273 35.15 22.0779 35.3157 21.5065 35.3157H20.2797C19.1169 35.3157 18.3898 34.8578 17.9415 34.1309C17.4831 33.3876 17.3031 32.3409 17.3031 31.1504V26.2427C17.3031 20.758 12.7544 16.3 7.17406 16.3C7.17406 16.3 7.17405 16.3 7.17405 16.3L6.26053 16.2999Z" fill="#07A137" stroke="#07A137" stroke-width="0.4"/>
<path d="M56.6362 3.67298L56.6365 3.67321L58.5758 5.6309C59.1334 6.19196 59.4497 6.94321 59.4499 7.74793M56.6362 3.67298L59.2499 7.74875M56.6362 3.67298C55.4779 2.50743 53.5808 2.50861 52.4111 3.67889L52.4106 3.67941M56.6362 3.67298L52.4106 3.67941M59.4499 7.74793C59.4499 7.7482 59.4499 7.74848 59.4499 7.74875H59.2499M59.4499 7.74793C59.4499 7.74765 59.4499 7.74737 59.4499 7.7471L59.2499 7.74875M59.4499 7.74793C59.4564 8.55977 59.1399 9.31794 58.5758 9.88556L55.483 12.9976M59.2499 7.74875C59.2562 8.50666 58.9612 9.21404 58.4339 9.74457L55.283 12.9151M55.483 12.9976V12.9151H55.283M55.483 12.9976L55.4248 13.0561L55.283 12.9151M55.483 12.9976L55.283 12.9151M52.4106 3.67941L48.6278 7.49191H5.31324C2.68462 7.49191 0.55 9.6416 0.55 12.2836V42.9535C0.55 45.5954 2.68462 47.7451 5.31324 47.7451H22.7418M52.4106 3.67941L22.7418 47.7451M22.7418 47.7451C22.7288 47.8648 22.7133 47.9903 22.691 48.1251L22.6905 48.1282C22.4494 49.7392 21.692 52.2845 19.3072 54.0015C18.7854 54.372 18.1906 54.7113 17.5103 54.9826C17.2573 55.083 17.0523 55.2746 16.9307 55.5042C16.8113 55.7293 16.757 55.9966 16.8106 56.2737L16.8107 56.2742C16.9168 56.8157 17.3812 57.2 17.9296 57.2H28.0165H38.1033C38.6504 57.2 39.1226 56.8105 39.2224 56.2734C39.2225 56.273 39.2226 56.2725 39.2227 56.2721L39.026 56.2358M22.7418 47.7451L39.1011 55.5019M39.026 56.2358C39.0699 56.0147 39.0323 55.7873 38.9256 55.5979M39.026 56.2358C38.9444 56.6779 38.5552 57 38.1033 57H28.0165H17.9296C17.4777 57 17.0948 56.6842 17.0069 56.2358M39.026 56.2358H17.0069M38.9256 55.5979L39.1023 55.5042C39.1019 55.5034 39.1015 55.5027 39.1011 55.5019M38.9256 55.5979L39.0998 55.4997C39.1003 55.5004 39.1007 55.5012 39.1011 55.5019M38.9256 55.5979C38.8251 55.4084 38.662 55.2568 38.4485 55.1684C37.7518 54.8842 37.1367 54.5431 36.6094 54.1642M39.1011 55.5019C38.9786 55.2721 38.7803 55.0894 38.5251 54.9836L38.5241 54.9832C37.841 54.7046 37.2399 54.371 36.7263 54.0018M36.6094 54.1642L36.7263 54.0018M36.6094 54.1642L36.7262 54.0018C36.7262 54.0018 36.7262 54.0018 36.7263 54.0018M36.6094 54.1642L36.7263 54.0018M17.0069 56.2358C16.963 56.0084 17.0069 55.7873 17.1074 55.5979C17.2078 55.4084 17.3773 55.2505 17.5844 55.1684C18.2811 54.8905 18.89 54.5431 19.4235 54.1642C21.8715 52.402 22.6435 49.7936 22.8883 48.1578L17.0069 56.2358ZM33.0914 47.7451C33.0833 47.6759 33.0759 47.6094 33.0693 47.5451H33.2704C33.2771 47.6092 33.2846 47.6758 33.2928 47.7451H33.0914ZM33.3427 48.1297C33.3426 48.1295 33.3426 48.1293 33.3426 48.129L33.1446 48.1578L33.3428 48.1304C33.3427 48.1302 33.3427 48.13 33.3427 48.1297ZM31.1652 48.7678L31.1652 48.7681C31.477 50.4936 32.2658 52.9331 34.2624 54.8926H28.0165H21.7769C23.7734 52.9338 24.5622 50.4996 24.874 48.7679L24.8741 48.7678C24.9426 48.3861 24.9892 48.0395 25.0214 47.7388H31.0179C31.05 48.0395 31.0967 48.3861 31.1652 48.7678ZM53.2062 15.295V42.9472C53.2062 44.3221 52.0894 45.444 50.726 45.444H32.1466H32.1403H5.31324C3.94982 45.444 2.83304 44.3221 2.83304 42.9472V12.2772C2.83304 10.9023 3.94982 9.78036 5.31324 9.78036H46.3475L30.8896 25.3406H30.8834L30.8247 25.3996C30.8145 25.4099 30.8066 25.4198 30.8008 25.4277C30.7983 25.4311 30.796 25.4344 30.794 25.4374C30.7913 25.4414 30.7891 25.445 30.7873 25.4479C30.787 25.4484 30.7867 25.4489 30.7864 25.4494L30.7737 25.4649C30.7131 25.5395 30.6507 25.6242 30.6028 25.7288L30.6027 25.7288L30.6005 25.7338C30.5779 25.7871 30.5627 25.8391 30.551 25.8803C30.5396 25.9092 30.5225 25.9533 30.513 26.0006L30.5125 26.0037L29.4895 31.6177C29.4895 31.6179 29.4894 31.618 29.4894 31.6182C29.4207 31.9876 29.5433 32.3691 29.8079 32.6354C29.8695 32.6974 29.9369 32.7497 30.0015 32.7931C30.0216 32.8066 30.0408 32.8162 30.0497 32.8207L30.0513 32.8215C30.0545 32.8231 30.0566 32.8241 30.0579 32.8248L30.0577 32.8251L30.0697 32.832C30.1266 32.8647 30.1815 32.888 30.2369 32.9089L30.2369 32.909L30.2439 32.9114C30.2576 32.9159 30.2722 32.9202 30.2821 32.923L30.2836 32.9234C30.2958 32.9269 30.3022 32.9288 30.3067 32.9303L30.314 32.9328L30.3215 32.9347C30.3838 32.9503 30.4375 32.9578 30.4897 32.9644L30.5021 32.966H30.5094L30.5176 32.9671L30.5184 32.9672C30.5234 32.9679 30.5316 32.9691 30.5401 32.9701C30.5445 32.9705 30.55 32.9711 30.5562 32.9715C30.5598 32.9723 30.5641 32.9733 30.5686 32.9741C30.5793 32.9762 30.5955 32.9786 30.6151 32.9786C30.6828 32.9786 30.7487 32.9712 30.8025 32.9652L30.8068 32.9647L30.8138 32.9639L30.8208 32.9626L36.3977 31.9337C36.3983 31.9336 36.399 31.9335 36.3996 31.9334C36.4402 31.9264 36.4734 31.9134 36.4941 31.9048C36.5205 31.894 36.5246 31.8917 36.535 31.8882C36.5432 31.8854 36.5485 31.884 36.5568 31.8817C36.5632 31.8799 36.5714 31.8776 36.5842 31.8739C36.6069 31.8672 36.6379 31.8573 36.6715 31.8407C36.7766 31.7911 36.88 31.7257 36.9716 31.6366C36.9821 31.6287 36.998 31.6151 37.013 31.5952L53.2062 15.295ZM36.9562 31.6472L36.9577 31.6462C36.9562 31.6472 36.9548 31.6481 36.9542 31.6484L36.9562 31.6472ZM30.9659 25.3406C30.9682 25.3406 30.9688 25.3406 30.9666 25.3406H30.9659ZM32.0089 30.4061L32.4025 27.3781L35.5187 29.8711L32.0089 30.4061ZM56.9677 8.26462L36.8284 28.2316L33.8278 25.7956L49.9075 9.44343C49.9077 9.44324 49.9079 9.44306 49.9081 9.44287C49.9196 9.43114 49.9287 9.4194 49.9358 9.40865L54.0176 5.30148C54.0178 5.30126 54.018 5.30104 54.0182 5.30082C54.3006 5.02235 54.7454 5.02137 55.0161 5.28817C55.0164 5.2884 55.0166 5.28863 55.0168 5.28887L56.9676 7.25183L57.1095 7.11085L56.9677 7.25183C57.1001 7.38508 57.1731 7.56185 57.1731 7.74875C57.1731 7.95093 57.0983 8.13289 56.9682 8.26406C56.968 8.26425 56.9678 8.26444 56.9677 8.26462ZM49.951 9.38195C49.9516 9.38081 49.9509 9.38222 49.95 9.38397L49.951 9.38195Z" fill="#07A137" stroke="#07A137" stroke-width="0.4"/>
</svg>
