<svg width="60" height="60" viewBox="0 0 60 60" fill="none" xmlns="http://www.w3.org/2000/svg">
<path d="M19.5142 35.2497L25.2539 30.4799L19.5142 35.2497ZM19.5142 35.2497L25.2541 40.0196C25.787 40.4624 25.8517 41.2455 25.3973 41.7664L25.3973 41.7664C25.1467 42.0537 24.7917 42.2 24.4367 42.2C24.149 42.2 23.8584 42.1034 23.6211 41.9062C23.6211 41.9062 23.6211 41.9062 23.6211 41.9062L16.7457 36.1933L16.7456 36.1932C16.4636 35.9585 16.3 35.6144 16.3 35.2497C16.3 34.8852 16.4644 34.5413 16.7454 34.3069L16.7457 34.3067L23.621 28.5938C24.1505 28.1533 24.9448 28.215 25.3972 28.7328L25.3974 28.7331C25.8515 29.2543 25.7871 30.0374 25.2541 30.4798L19.5142 35.2497Z" fill="#07A137" stroke="#07A137" stroke-width="0.4"/>
<path d="M40.4857 35.2497L34.7457 40.0196L34.7456 40.0197C34.2135 40.4624 34.1479 41.2455 34.6031 41.7665C34.8532 42.0538 35.2082 42.2 35.5631 42.2C35.8507 42.2 36.1414 42.1034 36.3787 41.9062C36.3787 41.9062 36.3787 41.9062 36.3787 41.9062L43.2543 36.1933L43.2544 36.1932C43.5364 35.9585 43.7 35.6144 43.7 35.2497C43.7 34.8854 43.5364 34.5413 43.2544 34.3067L43.2543 34.3067L36.3789 28.5939C36.3788 28.5939 36.3788 28.5938 36.3788 28.5938C35.8498 28.1532 35.0548 28.215 34.603 28.7329L40.4857 35.2497ZM40.4857 35.2497L34.7457 30.4798C34.7457 30.4798 34.7457 30.4798 34.7457 30.4798C34.2133 30.0375 34.148 29.2544 34.603 28.733L40.4857 35.2497Z" fill="#07A137" stroke="#07A137" stroke-width="0.4"/>
<path d="M27.7513 45.1762L27.7517 45.1763C27.8332 45.192 27.9146 45.2 27.9961 45.2C28.5377 45.2 29.0408 44.8485 29.1628 44.3122L29.1628 44.3121L33.1735 26.6567L33.1735 26.6566C33.3147 26.0349 32.883 25.4476 32.2487 25.3237L32.2487 25.3237C31.6173 25.2004 30.9771 25.5724 30.8372 26.1878L30.8372 26.1878L26.8265 43.8432C26.8265 43.8432 26.8265 43.8433 26.8265 43.8433C26.6853 44.4645 27.1169 45.0523 27.7513 45.1762Z" fill="#07A137" stroke="#07A137" stroke-width="0.4"/>
<path d="M7.8184 55.7H52.1816C55.7784 55.7 58.7 52.7337 58.7 49.0924V10.9076C58.7 7.26689 55.7784 4.3 52.1816 4.3H7.8184C4.22157 4.3 1.3 7.26689 1.3 10.9076V49.0924C1.3 52.7337 4.22159 55.7 7.8184 55.7ZM3.58208 10.9076C3.58208 8.53481 5.48542 6.60865 7.8184 6.60865H52.1816C54.5146 6.60865 56.4179 8.53481 56.4179 10.9076V49.0924C56.4179 51.4652 54.5146 53.3913 52.1816 53.3913H7.8184C5.48542 53.3913 3.58208 51.4652 3.58208 49.0924V10.9076Z" fill="#07A137" stroke="#07A137" stroke-width="0.4"/>
<path d="M2.44104 19.7H57.559C58.1446 19.7 58.7 19.3147 58.7 18.75C58.7 18.1857 58.1447 17.8 57.559 17.8H2.44104C1.85534 17.8 1.3 18.1857 1.3 18.75C1.3 19.3147 1.85542 19.7 2.44104 19.7Z" fill="#07A137" stroke="#07A137" stroke-width="0.4"/>
<path d="M18 15C16.3463 15 15 13.6537 15 12C15 10.3458 16.3463 9 18 9C19.6542 9 21 10.3458 21 12C21 13.6537 19.6542 15 18 15ZM18 10.896C17.3916 10.896 16.896 11.3911 16.896 12C16.896 12.6089 17.3916 13.104 18 13.104C18.6089 13.104 19.104 12.6089 19.104 12C19.104 11.3911 18.6089 10.896 18 10.896Z" fill="#07A137"/>
<path d="M9 15C7.34579 15 6 13.6542 6 12C6 10.3458 7.34579 9 9 9C10.6542 9 12 10.3458 12 12C12 13.6542 10.6542 15 9 15ZM9 10.896C8.39164 10.896 7.89596 11.3916 7.89596 12C7.89596 12.6089 8.39164 13.104 9 13.104C9.60889 13.104 10.104 12.6089 10.104 12C10.104 11.3916 9.60889 10.896 9 10.896Z" fill="#07A137"/>
<path d="M26.9997 15C25.3459 15 24 13.6541 24 11.9997C24 10.3459 25.3459 9 26.9997 9C28.6541 9 30 10.3459 30 11.9997C30 13.6541 28.6541 15 26.9997 15ZM26.9997 10.8956C26.3913 10.8956 25.8961 11.3908 25.8961 11.9997C25.8961 12.6087 26.3913 13.1039 26.9997 13.1039C27.6087 13.1039 28.1039 12.6087 28.1039 11.9997C28.1039 11.3908 27.6087 10.8956 26.9997 10.8956Z" fill="#07A137"/>
</svg>
