<svg width="60" height="60" viewBox="0 0 60 60" fill="none" xmlns="http://www.w3.org/2000/svg">
<g clip-path="url(#clip0_192_813)">
<path d="M35.4093 39.9616L35.4093 39.9617C35.1486 40.8795 34.1849 41.5329 33.1975 41.5329C31.7681 41.5329 30.8262 40.1808 31.2205 38.7934L36.5438 20.0667L36.5439 20.0667C36.8075 19.1384 37.6625 18.4954 38.6385 18.4954C40.0827 18.4954 41.1232 19.8625 40.7326 21.2354L40.7326 21.2354L35.4093 39.9616ZM26.6896 35.7545L26.6896 35.7545C27.5969 36.5148 27.7158 37.8672 26.9551 38.7745C26.5314 39.2798 25.9238 39.5408 25.3111 39.5408C24.8248 39.5408 24.3366 39.3767 23.935 39.04L18.1333 34.1755L18.1314 34.174L18.1232 34.1666L18.1209 34.1647C16.9348 33.1576 16.2547 31.6877 16.2547 30.1314C16.2547 28.5751 16.9348 27.1051 18.1209 26.098L18.1271 26.0928L18.1294 26.0905L18.1314 26.0888L18.1315 26.0887L23.935 21.2227C24.8423 20.462 26.1947 20.5813 26.955 21.4882L27.1083 21.3597L26.9551 21.4882C27.7158 22.3956 27.5969 23.748 26.6896 24.5083L26.6896 24.5083L20.8934 29.3684L20.8934 29.3684L20.8914 29.37C20.5876 29.6315 20.5422 29.9611 20.5422 30.1314C20.5422 30.3017 20.5876 30.6312 20.8914 30.8927L20.8934 30.8944L26.6896 35.7545ZM18.1271 26.0925C18.1269 26.0926 18.1269 26.0926 18.127 26.0925L18.1271 26.0925ZM53.2463 34.1647L53.2457 34.1652L47.5657 39.0257L47.6958 39.1777L47.5657 39.0258C47.1616 39.3717 46.6662 39.5408 46.1732 39.5408C45.5678 39.5408 44.9673 39.2862 44.5431 38.7904L44.5431 38.7904C43.7732 37.8911 43.8786 36.5378 44.778 35.7683L50.4642 30.9023C50.4642 30.9023 50.4643 30.9022 50.4644 30.9021C50.7788 30.6353 50.825 30.3036 50.825 30.1314C50.825 29.96 50.779 29.6277 50.4708 29.3657C50.4708 29.3657 50.4707 29.3656 50.4707 29.3656L44.778 24.4945C43.8787 23.7249 43.7731 22.3717 44.5431 21.4719L44.3912 21.3419L44.5431 21.4719C45.3127 20.5725 46.6659 20.467 47.5657 21.237L53.2521 26.103L53.2527 26.1035C54.4323 27.105 55.1125 28.5749 55.1125 30.1314C55.1125 31.6877 54.4324 33.1576 53.2463 34.1647ZM36.6797 59.8H13.9453C8.88624 59.8 4.77031 55.6841 4.77031 50.625V9.375C4.77031 4.31593 8.88624 0.2 13.9453 0.2H36.6797C41.7388 0.2 45.8547 4.31593 45.8547 9.375V13.022C45.8547 14.2061 44.895 15.1658 43.7109 15.1658C42.5268 15.1658 41.5672 14.2061 41.5672 13.022V9.375C41.5672 6.68001 39.3747 4.4875 36.6797 4.4875H13.9453C11.2503 4.4875 9.05781 6.68001 9.05781 9.375V50.625C9.05781 53.32 11.2503 55.5125 13.9453 55.5125H36.6797C39.3747 55.5125 41.5672 53.32 41.5672 50.625V46.1861C41.5672 45.002 42.5268 44.0423 43.7109 44.0423C44.895 44.0423 45.8547 45.002 45.8547 46.1861V50.625C45.8547 55.6841 41.7388 59.8 36.6797 59.8ZM27.6562 8.5345C28.8403 8.5345 29.8 9.49415 29.8 10.6783C29.8 11.8624 28.8403 12.822 27.6562 12.822H22.9688C21.7847 12.822 20.825 11.8624 20.825 10.6783C20.825 9.49415 21.7847 8.5345 22.9688 8.5345H27.6562ZM25.3125 47.2065C26.4966 47.2065 27.4562 48.1661 27.4562 49.3502C27.4562 50.5343 26.4966 51.494 25.3125 51.494C24.1284 51.494 23.1688 50.5343 23.1688 49.3502C23.1688 48.1661 24.1284 47.2065 25.3125 47.2065Z" fill="#07A137" stroke="#343434" stroke-width="0.4"/>
</g>
<defs>
<clipPath id="clip0_192_813">
<rect width="60" height="60" fill="white"/>
</clipPath>
</defs>
</svg>
