<svg width="60" height="60" viewBox="0 0 60 60" fill="none" xmlns="http://www.w3.org/2000/svg">
<path d="M24.4429 21H7.05665C4.8197 21 3 19.2338 3 17.0623V6.93733C3 4.76618 4.8197 3 7.05665 3H24.4429C26.6803 3 28.5 4.76618 28.5 6.93733V17.0623C28.5 19.2338 26.6803 21 24.4429 21ZM7.05665 6.37497C6.73703 6.37497 6.47725 6.62711 6.47725 6.93733V17.0623C6.47725 17.3729 6.73703 17.625 7.05665 17.625H24.4429C24.763 17.625 25.0227 17.3729 25.0227 17.0623V6.93733C25.0227 6.62711 24.763 6.37497 24.4429 6.37497H7.05665Z" fill="#07A137"/>
<path d="M24.4429 57H7.05665C4.8197 57 3 55.2338 3 53.0627V29.4378C3 27.2662 4.8197 25.5 7.05665 25.5H24.4429C26.6803 25.5 28.5 27.2662 28.5 29.4378V53.0627C28.5 55.2338 26.6803 57 24.4429 57ZM7.05665 28.875C6.73703 28.875 6.47725 29.1271 6.47725 29.4378V53.0627C6.47725 53.3729 6.73703 53.625 7.05665 53.625H24.4429C24.763 53.625 25.0227 53.3729 25.0227 53.0627V29.4378C25.0227 29.1271 24.763 28.875 24.4429 28.875H7.05665Z" fill="#07A137"/>
<path d="M52.9433 57H35.5571C33.3197 57 31.5 55.2338 31.5 53.0627V42.9377C31.5 40.7662 33.3197 39 35.5571 39H52.9433C55.1803 39 57 40.7662 57 42.9377V53.0627C57 55.2338 55.1803 57 52.9433 57ZM35.5571 42.375C35.237 42.375 34.9773 42.6271 34.9773 42.9377V53.0627C34.9773 53.3729 35.237 53.625 35.5571 53.625H52.9433C53.263 53.625 53.5227 53.3729 53.5227 53.0627V42.9377C53.5227 42.6271 53.263 42.375 52.9433 42.375H35.5571Z" fill="#07A137"/>
<path d="M52.9433 34.5H35.5571C33.3197 34.5 31.5 32.7338 31.5 30.5622V6.93735C31.5 4.76618 33.3197 3 35.5571 3H52.9433C55.1803 3 57 4.76618 57 6.93735V30.5622C57 32.7338 55.1803 34.5 52.9433 34.5ZM35.5571 6.37499C35.237 6.37499 34.9773 6.62712 34.9773 6.93735V30.5622C34.9773 30.8729 35.237 31.125 35.5571 31.125H52.9433C53.263 31.125 53.5227 30.8729 53.5227 30.5622V6.93735C53.5227 6.62712 53.263 6.37499 52.9433 6.37499H35.5571Z" fill="#07A137"/>
</svg>
