<svg width="60" height="60" viewBox="0 0 60 60" fill="none" xmlns="http://www.w3.org/2000/svg">
<path d="M17.8013 31.3612C16.8694 31.3612 16.1138 32.1169 16.1138 33.0487C16.1138 33.9806 16.8694 34.7362 17.8013 34.7362H30.09C31.0219 34.7362 31.7775 33.9806 31.7775 33.0487C31.7775 32.1169 31.0219 31.3612 30.09 31.3612H17.8013Z" fill="#07A137"/>
<path d="M17.8032 15.705H42.2007C43.1326 15.705 43.8882 14.9494 43.8882 14.0175C43.8882 13.0856 43.1326 12.33 42.2007 12.33H17.8032C16.8713 12.33 16.1157 13.0856 16.1157 14.0175C16.1157 14.9494 16.8713 15.705 17.8032 15.705Z" fill="#07A137"/>
<path d="M43.8863 23.5331C43.8863 22.6012 43.1307 21.8456 42.1989 21.8456H17.8032C16.8713 21.8456 16.1157 22.6012 16.1157 23.5331C16.1157 24.465 16.8713 25.2206 17.8032 25.2206H42.2007C43.1307 25.2206 43.8863 24.465 43.8863 23.5331Z" fill="#07A137"/>
<path d="M48.2626 2.0625H11.7376C8.43947 2.0625 5.75635 4.74563 5.75635 8.04375V51.9562C5.75635 55.2544 8.43947 57.9375 11.7357 57.9375H31.1607C32.0926 57.9375 32.8482 57.1819 32.8482 56.25C32.8482 55.3181 32.0926 54.5625 31.1607 54.5625H11.7376C10.3013 54.5625 9.13135 53.3925 9.13135 51.9562V8.04375C9.13135 6.60563 10.3013 5.4375 11.7376 5.4375H48.2626C49.7007 5.4375 50.8689 6.6075 50.8689 8.04375V33.75C50.8689 34.6819 51.6245 35.4375 52.5564 35.4375C53.4882 35.4375 54.2439 34.6819 54.2439 33.75V8.04375C54.2439 4.74563 51.5607 2.0625 48.2626 2.0625Z" fill="#07A137"/>
<path d="M49.5074 50.8144C50.7599 49.1756 51.5343 47.1544 51.5343 44.9381C51.5343 39.5737 47.1693 35.2087 41.803 35.2087C36.4368 35.2087 32.0718 39.5737 32.0718 44.9381C32.0718 50.3044 36.4368 54.6694 41.803 54.6694C43.7324 54.6694 45.523 54.0881 47.0362 53.115L51.3618 57.4425C51.6899 57.7725 52.123 57.9375 52.5543 57.9375C52.9855 57.9375 53.4168 57.7725 53.7468 57.4425C54.4068 56.7844 54.4068 55.7156 53.7468 55.0575L49.5074 50.8144ZM35.4468 44.9381C35.4468 41.4337 38.2987 38.5819 41.803 38.5819C45.3074 38.5819 48.1593 41.4337 48.1593 44.9381C48.1593 48.4425 45.3074 51.2944 41.803 51.2944C38.2987 51.2944 35.4468 48.4425 35.4468 44.9381Z" fill="#07A137"/>
</svg>
