<svg width="60" height="60" viewBox="0 0 60 60" fill="none" xmlns="http://www.w3.org/2000/svg">
<path d="M38.96 23.6375C40.144 23.6375 41.1037 24.5973 41.1037 25.7812C41.1037 26.9652 40.144 27.925 38.96 27.925H14.8193C13.6353 27.925 12.6756 26.9652 12.6756 25.7812C12.6756 24.5973 13.6353 23.6375 14.8193 23.6375H38.96Z" fill="#07A137" stroke="#343434" stroke-width="0.4"/>
<path d="M12.6756 35.1562C12.6756 33.9723 13.6353 33.0125 14.8193 33.0125H29.4808C30.6648 33.0125 31.6245 33.9723 31.6245 35.1562C31.6245 36.3402 30.6648 37.3 29.4808 37.3H14.8193C13.6353 37.3 12.6756 36.3402 12.6756 35.1562Z" fill="#07A137" stroke="#343434" stroke-width="0.4"/>
<path d="M12.4888 55.5125H20.3273C21.5113 55.5125 22.4711 56.4723 22.4711 57.6562C22.4711 58.8402 21.5113 59.8 20.3273 59.8H12.4888C7.42985 59.8 3.31377 55.6839 3.31377 50.625V9.375C3.31377 4.31608 7.42985 0.2 12.4888 0.2H41.3039C46.3628 0.2 50.4789 4.31608 50.4789 9.375V23.7891C50.4789 24.9731 49.5191 25.9328 48.3351 25.9328C47.1511 25.9328 46.1914 24.9731 46.1914 23.7891V9.375C46.1914 6.67986 43.999 4.4875 41.3039 4.4875H12.4888C9.79363 4.4875 7.60127 6.67986 7.60127 9.375V50.625C7.60127 53.3201 9.79363 55.5125 12.4888 55.5125Z" fill="#07A137" stroke="#343434" stroke-width="0.4"/>
<path d="M45.0299 34.0738L45.0297 34.0739L32.1622 46.913C31.9123 47.1624 31.7279 47.4696 31.6252 47.8075C31.6252 47.8075 31.6252 47.8075 31.6252 47.8075L28.8229 57.0331C28.5956 57.7812 28.7936 58.5936 29.3396 59.1532C29.7486 59.5724 30.3043 59.8 30.8743 59.8C31.0649 59.8 31.2574 59.7745 31.4463 59.7221L31.4464 59.7221L40.9064 57.1016L40.9598 57.2944L40.9064 57.1016C41.2625 57.003 41.587 56.8141 41.8485 56.553L41.8486 56.5529L54.689 43.7366L45.0299 34.0738ZM45.0299 34.0738C47.6915 31.4122 52.0255 31.4122 54.6889 34.0756M45.0299 34.0738L54.6889 34.0756M54.6889 34.0756C57.3523 36.7392 57.3524 41.0731 54.6891 43.7365L54.6889 34.0756ZM39.1679 53.1343L39.2186 53.1203L39.2558 53.0831L47.8869 44.4682L48.0286 44.3268L47.887 44.1852L44.5718 40.87L44.4305 40.7287L44.2891 40.8698L35.6068 49.5329L35.5713 49.5684L35.5567 49.6164L34.1639 54.2018L34.0583 54.5497L34.4087 54.4527L39.1679 53.1343ZM51.6588 40.7037L51.659 40.7035C52.6493 39.7129 52.6492 38.0994 51.6573 37.1076C50.6654 36.1156 49.0519 36.1156 48.0599 37.1076L47.6075 37.5591L47.4658 37.7005L47.6074 37.842L50.922 41.1567L51.0633 41.298L51.2047 41.1568L51.6588 40.7037Z" fill="#07A137" stroke="#343434" stroke-width="0.4"/>
<path d="M14.8193 14.2625H38.96C40.144 14.2625 41.1037 15.2223 41.1037 16.4062C41.1037 17.5902 40.144 18.55 38.96 18.55H14.8193C13.6353 18.55 12.6756 17.5902 12.6756 16.4062C12.6756 15.2223 13.6353 14.2625 14.8193 14.2625Z" fill="#07A137" stroke="#343434" stroke-width="0.4"/>
</svg>
