<svg width="40" height="40" viewBox="0 0 40 40" fill="none" xmlns="http://www.w3.org/2000/svg">
<circle opacity="0.1" cx="20" cy="20" r="20" fill="white"/>
<g opacity="0.8">
<g clip-path="url(#clip0_302_76)">
<path fill-rule="evenodd" clip-rule="evenodd" d="M27.8252 13.4361C28.6819 13.6668 29.3574 14.3422 29.5879 15.199C30.0164 16.7639 29.9999 20.0259 29.9999 20.0259C29.9999 20.0259 29.9999 23.2713 29.5881 24.8364C29.3574 25.693 28.682 26.3685 27.8252 26.5991C26.2602 27.011 20 27.011 20 27.011C20 27.011 13.7561 27.011 12.1747 26.5827C11.3179 26.352 10.6425 25.6765 10.4118 24.8199C10 23.2713 10 20.0094 10 20.0094C10 20.0094 10 16.7639 10.4118 15.199C10.6424 14.3423 11.3344 13.6504 12.1745 13.4198C13.7396 13.0078 19.9998 13.0078 19.9998 13.0078C19.9998 13.0078 26.2602 13.0078 27.8252 13.4361ZM23.2125 20.009L18.0067 23.0073V17.0106L23.2125 20.009Z" fill="white"/>
</g>
</g>
<defs>
<clipPath id="clip0_302_76">
<rect width="20" height="20" fill="white" transform="translate(10 10)"/>
</clipPath>
</defs>
</svg>
